Coordinates
version=1
nRows=20
nColumns=34
inDegrees=yes

Units are S.I. units (second, meters, Newtons, ...)
If the header above contains a line with 'inDegrees', this indicates whether rotational values are in degrees (yes) or radians (no).

endheader
time	pelvis_tilt	pelvis_list	pelvis_rotation	pelvis_tx	pelvis_ty	pelvis_tz	hip_flexion_r	hip_adduction_r	hip_rotation_r	knee_angle_r	ankle_angle_r	subtalar_angle_r	mtp_angle_r	hip_flexion_l	hip_adduction_l	hip_rotation_l	knee_angle_l	ankle_angle_l	subtalar_angle_l	mtp_angle_l	lumbar_extension	lumbar_bending	lumbar_rotation	arm_flex_r	arm_add_r	arm_rot_r	elbow_flex_r	pro_sup_r	arm_flex_l	arm_add_l	arm_rot_l	elbow_flex_l	pro_sup_l
      1.66666670	     -0.10572476	      0.74608316	     -4.25615648	      1.78987468	      0.88030299	      0.00640428	     -2.55005103	     -5.30416640	     -1.07020953	      1.01626618	      2.63233001	    -20.59653937	      0.00000000	     -2.84621413	     -2.08646761	      5.16172267	      0.00000000	      3.33734576	    -10.28700773	      0.00000000	     -9.01490688	      1.97894751	     -0.50460459	      4.17013154	     -9.28954401	     33.88271156	     87.08965268	     90.77522145	      8.95004442	     -8.90968858	     34.75388179	     69.52831839	     85.32659559
      1.68333330	     -0.09528034	      0.74606712	     -4.26188550	      1.78945049	      0.88026675	      0.00639856	     -2.55098500	     -5.30199597	     -1.07064031	      1.01433226	      2.63340712	    -20.59806273	      0.00000000	     -2.84047635	     -2.08936239	      5.16335899	      0.00000000	      3.33890231	    -10.28556281	      0.00000000	     -9.01060786	      1.97692388	     -0.50159348	      4.16941939	     -9.29135307	     33.88838159	     87.08669770	     90.77471988	      8.95036768	     -8.90860106	     34.75547788	     69.52836053	     85.32613838
      1.70000000	     -0.10167800	      0.67874592	     -4.42948864	      1.78912432	      0.88133688	      0.00654882	     -2.53473036	     -5.21408457	     -0.80303380	      0.96778365	      2.63755842	    -20.75356459	      0.00000000	     -2.86985469	     -2.17202160	      5.02543346	      0.00000000	      3.70639155	    -10.02611209	      0.00000000	     -8.78306620	      1.85951289	     -0.09095775	      4.57029552	     -9.81406454	     35.33279819	     86.23896197	     90.57029039	      9.23787464	     -8.76052177	     35.32103800	     69.34700153	     85.17256291
      1.71666670	     -0.08898608	      0.69806018	     -4.36563023	      1.78883855	      0.88238710	      0.00629535	     -2.53898189	     -5.23857281	     -0.78720955	      0.98898110	      2.63128371	    -20.75275892	      0.00000000	     -2.85575506	     -2.15348598	      5.04206832	      0.00120457	      3.68286778	     -9.99259369	      0.00000000	     -8.78520514	      1.92456759	     -0.05265143	      4.58436527	     -9.76906821	     35.37592357	     86.23554718	     90.55848943	      9.21442426	     -8.82378811	     35.32412039	     69.31796009	     85.16375960
      1.73333330	     -0.09062709	      0.69805838	     -4.36655674	      1.78870388	      0.88306099	      0.00619295	     -2.53858647	     -5.23930168	     -0.78722859	      0.98880875	      2.63137748	    -20.75301989	      0.00000000	     -2.85569145	     -2.15463408	      5.04281366	      0.00046412	      3.68261423	     -9.99190589	      0.00000000	     -8.78488909	      1.92472732	     -0.05249021	      4.58396642	     -9.76852115	     35.37697810	     86.23520477	     90.55828420	      9.21416912	     -8.82445515	     35.32427515	     69.31766041	     85.16360275
      1.75000000	     -0.07418837	      0.68144637	     -4.37541621	      1.78827280	      0.88361784	      0.00614440	     -2.50378638	     -5.22532753	     -0.77500621	      1.03554707	      2.60400598	    -20.74685951	      0.00000000	     -2.84975149	     -2.16906865	      5.15683037	      0.00000000	      3.63739906	     -9.88417422	      0.00000000	     -8.86810048	      1.98164103	      0.02393028	      4.53488486	     -9.72447399	     35.51595688	     86.14343618	     90.53672950	      9.18888222	     -8.91447550	     35.32885932	     69.26484101	     85.14572760
      1.76666670	     -0.06786196	      0.67675828	     -4.37388521	      1.78834321	      0.88313570	      0.00625850	     -2.50115061	     -5.22560505	     -0.77492421	      1.03467671	      2.60378046	    -20.74674440	      0.00000000	     -2.84858454	     -2.16644968	      5.15698691	      0.00000000	      3.63735419	     -9.88367306	      0.00000000	     -8.86813467	      1.98153501	      0.02416919	      4.53503692	     -9.72451114	     35.51685250	     86.14261580	     90.53654086	      9.18916760	     -8.91441205	     35.32892887	     69.26470712	     85.14558477
      1.78333330	     -0.05344059	      0.67131383	     -4.37153355	      1.78863120	      0.88159579	      0.00649312	     -2.49708799	     -5.22431589	     -0.77481319	      1.03350564	      2.60326903	    -20.74634364	      0.00000000	     -2.84517696	     -2.16219024	      5.15722100	      0.00117648	      3.63715499	     -9.88296564	      0.00000000	     -8.86877813	      1.98158354	      0.02482103	      4.53558417	     -9.72470756	     35.51768305	     86.14158346	     90.53635384	      9.18934994	     -8.91434096	     35.32897715	     69.26445303	     85.14544277
      1.80000000	     -0.02122606	      0.66150408	     -4.29801814	      1.78902763	      0.87976543	      0.00671647	     -2.53987227	     -5.19893920	     -0.78480822	      1.08011438	      2.59316524	    -20.75040796	      0.00000000	     -2.86805192	     -2.18375263	      5.14004326	      0.00000000	      3.64358785	     -9.87723784	      0.00000000	     -8.82736632	      1.96600964	      0.08390799	      4.57949457	     -9.71016979	     35.56759891	     86.10651838	     90.52662800	      9.18296523	     -8.90350254	     35.33776643	     69.26931429	     85.13822803
      1.81666670	     -0.01708680	      0.66209253	     -4.29921715	      1.78892015	      0.87876003	      0.00669014	     -2.54243753	     -5.19729901	     -0.78535282	      1.08104026	      2.59312916	    -20.75051582	      0.00000000	     -2.86648160	     -2.18335222	      5.13959139	      0.00000000	      3.64364083	     -9.87719682	      0.00000000	     -8.82702306	      1.96586907	      0.08423566	      4.57949312	     -9.70985508	     35.56853701	     86.10585847	     90.52649878	      9.18263896	     -8.90294258	     35.33815042	     69.26939360	     85.13813927
      1.83333330	      0.05382636	      0.65766716	     -4.22465343	      1.78876333	      0.87906708	      0.00674138	     -2.64261473	     -5.19056952	     -0.83019214	      1.10006863	      2.61829999	    -20.78396901	      0.00000000	     -2.89238902	     -2.19325487	      5.02187118	      0.04351399	      3.67037926	     -9.93590790	      0.00000000	     -8.72791965	      1.94105377	      0.14938580	      4.58471026	     -9.61947942	     35.69627375	     86.05898546	     90.51480476	      9.15614102	     -8.81852385	     35.38718904	     69.30809336	     85.12980536
      1.85000000	      0.05855860	      0.66676386	     -4.23190164	      1.78891110	      0.87978915	      0.00734024	     -2.64795843	     -5.19130540	     -0.83367716	      1.09610083	      2.62143368	    -20.78655496	      0.00000000	     -2.88653255	     -2.19982229	      5.01598428	      0.04097631	      3.67175456	     -9.93946934	      0.00000000	     -8.72606109	      1.94051900	      0.14785240	      4.58394419	     -9.61926375	     35.70406546	     86.05340459	     90.51376856	      9.15676235	     -8.81313172	     35.39096155	     69.31049300	     85.12917019
      1.86666670	      0.09367603	      0.65700970	     -4.21738703	      1.78948411	      0.88018297	      0.00818147	     -2.76018014	     -5.16120817	     -0.86583689	      1.00667744	      2.69250858	    -20.82316468	      0.00000000	     -2.93123783	     -2.23325221	      4.83053262	      0.06617159	      3.68499494	    -10.03487259	      0.00000000	     -8.59836573	      1.83007949	      0.13942137	      4.66996139	     -9.63783362	     35.78990825	     85.97067400	     90.49305524	      9.13529994	     -8.71895670	     35.47024106	     69.35870876	     85.11873250
      1.88333330	      0.08921169	      0.67523953	     -4.21799954	      1.78950127	      0.88073996	      0.00865781	     -2.76466933	     -5.15873035	     -0.86446430	      1.00357080	      2.69387987	    -20.82223511	      0.00000000	     -2.93531207	     -2.24195610	      4.82672587	      0.06916801	      3.68340336	    -10.03639508	      0.00000000	     -8.59445755	      1.83065403	      0.13766391	      4.67800888	     -9.64464613	     35.78883192	     85.96667402	     90.49173480	      9.13275047	     -8.71915339	     35.47336368	     69.35915348	     85.11816533
      1.90000000	      0.13149073	      0.65682411	     -4.23881354	      1.78903435	      0.88191928	      0.00882321	     -2.86363792	     -5.12187215	     -0.83528402	      0.91072804	      2.72223571	    -20.79711450	      0.00000000	     -2.97993388	     -2.27797117	      4.71418506	      0.12126002	      3.61851260	    -10.06399558	      0.00000000	     -8.42811376	      1.70797327	      0.08630076	      4.91769619	     -9.80489501	     35.68781561	     85.91551371	     90.46285145	      9.04308434	     -8.76019591	     35.53439755	     69.35367559	     85.10732528
      1.91666670	      0.13367976	      0.66432112	     -4.23728776	      1.78844861	      0.88284455	      0.00911061	     -2.85780273	     -5.11747900	     -0.83425012	      0.90203039	      2.72238565	    -20.79527345	      0.00000000	     -2.98486995	     -2.27716930	      4.71038455	      0.12266350	      3.61548350	    -10.06460289	      0.00000000	     -8.42506287	      1.70859820	      0.08239811	      4.92059427	     -9.80912203	     35.68547309	     85.91221428	     90.46164570	      9.04040102	     -8.76401594	     35.53572538	     69.35252094	     85.10677810
      1.93333330	      0.15941865	      0.64052228	     -4.30850437	      1.78830767	      0.88290989	      0.00989992	     -2.91333368	     -5.06745765	     -0.82969804	      0.79046672	      2.70361606	    -20.74932934	      0.00000000	     -3.01482478	     -2.31442750	      4.62035668	      0.17288164	      3.50219390	    -10.05868472	      0.00000000	     -8.34202687	      1.59454110	     -0.00677985	      5.06845078	     -9.95979126	     35.55183814	     85.84160090	     90.43243668	      8.99703782	     -8.93027698	     35.53045897	     69.30047102	     85.09374185
      1.95000000	      0.17706646	      0.65754985	     -4.22991804	      1.78824223	      0.88239654	      0.01031073	     -2.97174548	     -5.05502138	     -0.81327391	      0.73731122	      2.66693068	    -20.69631868	      0.00000000	     -3.03024600	     -2.31595733	      4.53346863	      0.15976507	      3.42081620	    -10.05866135	      0.00000000	     -8.28878711	      1.57088349	     -0.05332454	      5.19861938	    -10.03085300	     35.42853403	     85.77168729	     90.40364750	      8.95987219	     -9.03863715	     35.51765299	     69.26627116	     85.08090042
      1.96666670	      0.27642397	      0.63849335	     -4.27014680	      1.78794960	      0.88191534	      0.01045982	     -3.16460837	     -5.00194343	     -0.93382630	      0.54001314	      2.53956656	    -20.52851822	      0.00000000	     -3.20302561	     -2.35788561	      4.44153982	      0.06384026	      3.15646857	     -9.94487947	      0.00000000	     -8.27773610	      1.53701317	     -0.41023685	      5.38076559	     -9.76247868	     34.92773310	     85.23461373	     90.18004689	      8.79316074	     -9.19160512	     35.40076737	     69.21782453	     84.97057679
      1.98333330	      0.28492906	      0.64671031	     -4.27787149	      1.78727101	      0.88178085	      0.01018789	     -3.16279355	     -4.99150226	     -0.93672792	      0.53718338	      2.54145252	    -20.53021991	      0.00000000	     -3.20133263	     -2.35939743	      4.44477786	      0.06255892	      3.15792787	     -9.94368477	      0.00000000	     -8.27365992	      1.53343680	     -0.41046632	      5.38425461	     -9.76785267	     34.92317570	     85.23350876	     90.17880970	      8.79259384	     -9.19469839	     35.39855897	     69.21786379	     84.96991036
